<mxfile host="app.diagrams.net" modified="2024-02-20T21:48:15.341Z" agent="Mozilla/5.0 (Windows NT 10.0; Win64; x64) AppleWebKit/537.36 (KHTML, like Gecko) Chrome/121.0.0.0 Safari/537.36 Edg/121.0.0.0" etag="D-rgVWlNd2DK4BeYIsBy" version="23.1.5" type="device">
  <diagram name="PÃ¡gina-1" id="cRyoY-j3JOlNsyGh8bAO">
    <mxGraphModel dx="755" dy="392" grid="1" gridSize="10" guides="1" tooltips="1" connect="1" arrows="1" fold="1" page="1" pageScale="1" pageWidth="827" pageHeight="1169" math="0" shadow="0">
      <root>
        <mxCell id="0" />
        <mxCell id="1" parent="0" />
        <mxCell id="PmIpgidc1ys_fQhGmDW8-37" value="Alumnos" style="shape=table;startSize=25;container=1;collapsible=0;childLayout=tableLayout;fixedRows=1;rowLines=1;fontStyle=1;align=center;resizeLast=1;" vertex="1" parent="1">
          <mxGeometry x="70" y="120" width="120" height="132" as="geometry" />
        </mxCell>
        <mxCell id="PmIpgidc1ys_fQhGmDW8-38" style="shape=tableRow;horizontal=0;startSize=0;swimlaneHead=0;swimlaneBody=0;fillColor=none;collapsible=0;dropTarget=0;points=[[0,0.5],[1,0.5]];portConstraint=eastwest;top=0;left=0;right=0;bottom=0;" vertex="1" parent="PmIpgidc1ys_fQhGmDW8-37">
          <mxGeometry y="25" width="120" height="21" as="geometry" />
        </mxCell>
        <mxCell id="PmIpgidc1ys_fQhGmDW8-39" value="ObjectId" style="shape=partialRectangle;connectable=0;fillColor=none;top=0;left=0;bottom=0;right=0;align=left;spacingLeft=2;overflow=hidden;fontSize=11;" vertex="1" parent="PmIpgidc1ys_fQhGmDW8-38">
          <mxGeometry width="50" height="21" as="geometry">
            <mxRectangle width="50" height="21" as="alternateBounds" />
          </mxGeometry>
        </mxCell>
        <mxCell id="PmIpgidc1ys_fQhGmDW8-40" value="_id" style="shape=partialRectangle;connectable=0;fillColor=none;top=0;left=0;bottom=0;right=0;align=left;spacingLeft=2;overflow=hidden;fontSize=11;" vertex="1" parent="PmIpgidc1ys_fQhGmDW8-38">
          <mxGeometry x="50" width="70" height="21" as="geometry">
            <mxRectangle width="70" height="21" as="alternateBounds" />
          </mxGeometry>
        </mxCell>
        <mxCell id="PmIpgidc1ys_fQhGmDW8-41" style="shape=tableRow;horizontal=0;startSize=0;swimlaneHead=0;swimlaneBody=0;fillColor=none;collapsible=0;dropTarget=0;points=[[0,0.5],[1,0.5]];portConstraint=eastwest;top=0;left=0;right=0;bottom=0;" vertex="1" parent="PmIpgidc1ys_fQhGmDW8-37">
          <mxGeometry y="46" width="120" height="21" as="geometry" />
        </mxCell>
        <mxCell id="PmIpgidc1ys_fQhGmDW8-42" value="String" style="shape=partialRectangle;connectable=0;fillColor=none;top=0;left=0;bottom=0;right=0;align=left;spacingLeft=2;overflow=hidden;fontSize=11;" vertex="1" parent="PmIpgidc1ys_fQhGmDW8-41">
          <mxGeometry width="50" height="21" as="geometry">
            <mxRectangle width="50" height="21" as="alternateBounds" />
          </mxGeometry>
        </mxCell>
        <mxCell id="PmIpgidc1ys_fQhGmDW8-43" value="nombre" style="shape=partialRectangle;connectable=0;fillColor=none;top=0;left=0;bottom=0;right=0;align=left;spacingLeft=2;overflow=hidden;fontSize=11;" vertex="1" parent="PmIpgidc1ys_fQhGmDW8-41">
          <mxGeometry x="50" width="70" height="21" as="geometry">
            <mxRectangle width="70" height="21" as="alternateBounds" />
          </mxGeometry>
        </mxCell>
        <mxCell id="PmIpgidc1ys_fQhGmDW8-44" style="shape=tableRow;horizontal=0;startSize=0;swimlaneHead=0;swimlaneBody=0;fillColor=none;collapsible=0;dropTarget=0;points=[[0,0.5],[1,0.5]];portConstraint=eastwest;top=0;left=0;right=0;bottom=0;" vertex="1" parent="PmIpgidc1ys_fQhGmDW8-37">
          <mxGeometry y="67" width="120" height="21" as="geometry" />
        </mxCell>
        <mxCell id="PmIpgidc1ys_fQhGmDW8-45" value="String" style="shape=partialRectangle;connectable=0;fillColor=none;top=0;left=0;bottom=0;right=0;align=left;spacingLeft=2;overflow=hidden;fontSize=11;" vertex="1" parent="PmIpgidc1ys_fQhGmDW8-44">
          <mxGeometry width="50" height="21" as="geometry">
            <mxRectangle width="50" height="21" as="alternateBounds" />
          </mxGeometry>
        </mxCell>
        <mxCell id="PmIpgidc1ys_fQhGmDW8-46" value="apellidos" style="shape=partialRectangle;connectable=0;fillColor=none;top=0;left=0;bottom=0;right=0;align=left;spacingLeft=2;overflow=hidden;fontSize=11;" vertex="1" parent="PmIpgidc1ys_fQhGmDW8-44">
          <mxGeometry x="50" width="70" height="21" as="geometry">
            <mxRectangle width="70" height="21" as="alternateBounds" />
          </mxGeometry>
        </mxCell>
        <mxCell id="PmIpgidc1ys_fQhGmDW8-47" style="shape=tableRow;horizontal=0;startSize=0;swimlaneHead=0;swimlaneBody=0;fillColor=none;collapsible=0;dropTarget=0;points=[[0,0.5],[1,0.5]];portConstraint=eastwest;top=0;left=0;right=0;bottom=0;" vertex="1" parent="PmIpgidc1ys_fQhGmDW8-37">
          <mxGeometry y="88" width="120" height="21" as="geometry" />
        </mxCell>
        <mxCell id="PmIpgidc1ys_fQhGmDW8-48" value="String" style="shape=partialRectangle;connectable=0;fillColor=none;top=0;left=0;bottom=0;right=0;align=left;spacingLeft=2;overflow=hidden;fontSize=11;" vertex="1" parent="PmIpgidc1ys_fQhGmDW8-47">
          <mxGeometry width="50" height="21" as="geometry">
            <mxRectangle width="50" height="21" as="alternateBounds" />
          </mxGeometry>
        </mxCell>
        <mxCell id="PmIpgidc1ys_fQhGmDW8-49" value="fecha" style="shape=partialRectangle;connectable=0;fillColor=none;top=0;left=0;bottom=0;right=0;align=left;spacingLeft=2;overflow=hidden;fontSize=11;" vertex="1" parent="PmIpgidc1ys_fQhGmDW8-47">
          <mxGeometry x="50" width="70" height="21" as="geometry">
            <mxRectangle width="70" height="21" as="alternateBounds" />
          </mxGeometry>
        </mxCell>
        <mxCell id="PmIpgidc1ys_fQhGmDW8-50" style="shape=tableRow;horizontal=0;startSize=0;swimlaneHead=0;swimlaneBody=0;fillColor=none;collapsible=0;dropTarget=0;points=[[0,0.5],[1,0.5]];portConstraint=eastwest;top=0;left=0;right=0;bottom=0;" vertex="1" parent="PmIpgidc1ys_fQhGmDW8-37">
          <mxGeometry y="109" width="120" height="21" as="geometry" />
        </mxCell>
        <mxCell id="PmIpgidc1ys_fQhGmDW8-51" value="String" style="shape=partialRectangle;connectable=0;fillColor=none;top=0;left=0;bottom=0;right=0;align=left;spacingLeft=2;overflow=hidden;fontSize=11;" vertex="1" parent="PmIpgidc1ys_fQhGmDW8-50">
          <mxGeometry width="50" height="21" as="geometry">
            <mxRectangle width="50" height="21" as="alternateBounds" />
          </mxGeometry>
        </mxCell>
        <mxCell id="PmIpgidc1ys_fQhGmDW8-52" value="nia" style="shape=partialRectangle;connectable=0;fillColor=none;top=0;left=0;bottom=0;right=0;align=left;spacingLeft=2;overflow=hidden;fontSize=11;" vertex="1" parent="PmIpgidc1ys_fQhGmDW8-50">
          <mxGeometry x="50" width="70" height="21" as="geometry">
            <mxRectangle width="70" height="21" as="alternateBounds" />
          </mxGeometry>
        </mxCell>
        <mxCell id="PmIpgidc1ys_fQhGmDW8-53" value="Matriculas" style="shape=table;startSize=25;container=1;collapsible=0;childLayout=tableLayout;fixedRows=1;rowLines=1;fontStyle=1;align=center;resizeLast=1;" vertex="1" parent="1">
          <mxGeometry x="290" y="130.5" width="120" height="111" as="geometry" />
        </mxCell>
        <mxCell id="PmIpgidc1ys_fQhGmDW8-54" style="shape=tableRow;horizontal=0;startSize=0;swimlaneHead=0;swimlaneBody=0;fillColor=none;collapsible=0;dropTarget=0;points=[[0,0.5],[1,0.5]];portConstraint=eastwest;top=0;left=0;right=0;bottom=0;" vertex="1" parent="PmIpgidc1ys_fQhGmDW8-53">
          <mxGeometry y="25" width="120" height="21" as="geometry" />
        </mxCell>
        <mxCell id="PmIpgidc1ys_fQhGmDW8-55" value="ObjectId" style="shape=partialRectangle;connectable=0;fillColor=none;top=0;left=0;bottom=0;right=0;align=left;spacingLeft=2;overflow=hidden;fontSize=11;" vertex="1" parent="PmIpgidc1ys_fQhGmDW8-54">
          <mxGeometry width="50" height="21" as="geometry">
            <mxRectangle width="50" height="21" as="alternateBounds" />
          </mxGeometry>
        </mxCell>
        <mxCell id="PmIpgidc1ys_fQhGmDW8-56" value="_id" style="shape=partialRectangle;connectable=0;fillColor=none;top=0;left=0;bottom=0;right=0;align=left;spacingLeft=2;overflow=hidden;fontSize=11;" vertex="1" parent="PmIpgidc1ys_fQhGmDW8-54">
          <mxGeometry x="50" width="70" height="21" as="geometry">
            <mxRectangle width="70" height="21" as="alternateBounds" />
          </mxGeometry>
        </mxCell>
        <mxCell id="PmIpgidc1ys_fQhGmDW8-57" style="shape=tableRow;horizontal=0;startSize=0;swimlaneHead=0;swimlaneBody=0;fillColor=none;collapsible=0;dropTarget=0;points=[[0,0.5],[1,0.5]];portConstraint=eastwest;top=0;left=0;right=0;bottom=0;" vertex="1" parent="PmIpgidc1ys_fQhGmDW8-53">
          <mxGeometry y="46" width="120" height="21" as="geometry" />
        </mxCell>
        <mxCell id="PmIpgidc1ys_fQhGmDW8-58" value="ObjectId" style="shape=partialRectangle;connectable=0;fillColor=none;top=0;left=0;bottom=0;right=0;align=left;spacingLeft=2;overflow=hidden;fontSize=11;" vertex="1" parent="PmIpgidc1ys_fQhGmDW8-57">
          <mxGeometry width="50" height="21" as="geometry">
            <mxRectangle width="50" height="21" as="alternateBounds" />
          </mxGeometry>
        </mxCell>
        <mxCell id="PmIpgidc1ys_fQhGmDW8-59" value="idAlumno" style="shape=partialRectangle;connectable=0;fillColor=none;top=0;left=0;bottom=0;right=0;align=left;spacingLeft=2;overflow=hidden;fontSize=11;" vertex="1" parent="PmIpgidc1ys_fQhGmDW8-57">
          <mxGeometry x="50" width="70" height="21" as="geometry">
            <mxRectangle width="70" height="21" as="alternateBounds" />
          </mxGeometry>
        </mxCell>
        <mxCell id="PmIpgidc1ys_fQhGmDW8-60" style="shape=tableRow;horizontal=0;startSize=0;swimlaneHead=0;swimlaneBody=0;fillColor=none;collapsible=0;dropTarget=0;points=[[0,0.5],[1,0.5]];portConstraint=eastwest;top=0;left=0;right=0;bottom=0;" vertex="1" parent="PmIpgidc1ys_fQhGmDW8-53">
          <mxGeometry y="67" width="120" height="21" as="geometry" />
        </mxCell>
        <mxCell id="PmIpgidc1ys_fQhGmDW8-61" value="ObjectId" style="shape=partialRectangle;connectable=0;fillColor=none;top=0;left=0;bottom=0;right=0;align=left;spacingLeft=2;overflow=hidden;fontSize=11;" vertex="1" parent="PmIpgidc1ys_fQhGmDW8-60">
          <mxGeometry width="50" height="21" as="geometry">
            <mxRectangle width="50" height="21" as="alternateBounds" />
          </mxGeometry>
        </mxCell>
        <mxCell id="PmIpgidc1ys_fQhGmDW8-62" value="idmodulo" style="shape=partialRectangle;connectable=0;fillColor=none;top=0;left=0;bottom=0;right=0;align=left;spacingLeft=2;overflow=hidden;fontSize=11;" vertex="1" parent="PmIpgidc1ys_fQhGmDW8-60">
          <mxGeometry x="50" width="70" height="21" as="geometry">
            <mxRectangle width="70" height="21" as="alternateBounds" />
          </mxGeometry>
        </mxCell>
        <mxCell id="PmIpgidc1ys_fQhGmDW8-63" style="shape=tableRow;horizontal=0;startSize=0;swimlaneHead=0;swimlaneBody=0;fillColor=none;collapsible=0;dropTarget=0;points=[[0,0.5],[1,0.5]];portConstraint=eastwest;top=0;left=0;right=0;bottom=0;" vertex="1" parent="PmIpgidc1ys_fQhGmDW8-53">
          <mxGeometry y="88" width="120" height="21" as="geometry" />
        </mxCell>
        <mxCell id="PmIpgidc1ys_fQhGmDW8-64" value="String" style="shape=partialRectangle;connectable=0;fillColor=none;top=0;left=0;bottom=0;right=0;align=left;spacingLeft=2;overflow=hidden;fontSize=11;" vertex="1" parent="PmIpgidc1ys_fQhGmDW8-63">
          <mxGeometry width="50" height="21" as="geometry">
            <mxRectangle width="50" height="21" as="alternateBounds" />
          </mxGeometry>
        </mxCell>
        <mxCell id="PmIpgidc1ys_fQhGmDW8-65" value="notas" style="shape=partialRectangle;connectable=0;fillColor=none;top=0;left=0;bottom=0;right=0;align=left;spacingLeft=2;overflow=hidden;fontSize=11;" vertex="1" parent="PmIpgidc1ys_fQhGmDW8-63">
          <mxGeometry x="50" width="70" height="21" as="geometry">
            <mxRectangle width="70" height="21" as="alternateBounds" />
          </mxGeometry>
        </mxCell>
        <mxCell id="PmIpgidc1ys_fQhGmDW8-66" value="Modulos" style="shape=table;startSize=25;container=1;collapsible=0;childLayout=tableLayout;fixedRows=1;rowLines=1;fontStyle=1;align=center;resizeLast=1;" vertex="1" parent="1">
          <mxGeometry x="500" y="152.5" width="120" height="67" as="geometry" />
        </mxCell>
        <mxCell id="PmIpgidc1ys_fQhGmDW8-67" style="shape=tableRow;horizontal=0;startSize=0;swimlaneHead=0;swimlaneBody=0;fillColor=none;collapsible=0;dropTarget=0;points=[[0,0.5],[1,0.5]];portConstraint=eastwest;top=0;left=0;right=0;bottom=0;" vertex="1" parent="PmIpgidc1ys_fQhGmDW8-66">
          <mxGeometry y="25" width="120" height="21" as="geometry" />
        </mxCell>
        <mxCell id="PmIpgidc1ys_fQhGmDW8-68" value="ObjectId" style="shape=partialRectangle;connectable=0;fillColor=none;top=0;left=0;bottom=0;right=0;align=left;spacingLeft=2;overflow=hidden;fontSize=11;" vertex="1" parent="PmIpgidc1ys_fQhGmDW8-67">
          <mxGeometry width="50" height="21" as="geometry">
            <mxRectangle width="50" height="21" as="alternateBounds" />
          </mxGeometry>
        </mxCell>
        <mxCell id="PmIpgidc1ys_fQhGmDW8-69" value="_id" style="shape=partialRectangle;connectable=0;fillColor=none;top=0;left=0;bottom=0;right=0;align=left;spacingLeft=2;overflow=hidden;fontSize=11;" vertex="1" parent="PmIpgidc1ys_fQhGmDW8-67">
          <mxGeometry x="50" width="70" height="21" as="geometry">
            <mxRectangle width="70" height="21" as="alternateBounds" />
          </mxGeometry>
        </mxCell>
        <mxCell id="PmIpgidc1ys_fQhGmDW8-70" style="shape=tableRow;horizontal=0;startSize=0;swimlaneHead=0;swimlaneBody=0;fillColor=none;collapsible=0;dropTarget=0;points=[[0,0.5],[1,0.5]];portConstraint=eastwest;top=0;left=0;right=0;bottom=0;" vertex="1" parent="PmIpgidc1ys_fQhGmDW8-66">
          <mxGeometry y="46" width="120" height="21" as="geometry" />
        </mxCell>
        <mxCell id="PmIpgidc1ys_fQhGmDW8-71" value="String" style="shape=partialRectangle;connectable=0;fillColor=none;top=0;left=0;bottom=0;right=0;align=left;spacingLeft=2;overflow=hidden;fontSize=11;" vertex="1" parent="PmIpgidc1ys_fQhGmDW8-70">
          <mxGeometry width="50" height="21" as="geometry">
            <mxRectangle width="50" height="21" as="alternateBounds" />
          </mxGeometry>
        </mxCell>
        <mxCell id="PmIpgidc1ys_fQhGmDW8-72" value="nombre" style="shape=partialRectangle;connectable=0;fillColor=none;top=0;left=0;bottom=0;right=0;align=left;spacingLeft=2;overflow=hidden;fontSize=11;" vertex="1" parent="PmIpgidc1ys_fQhGmDW8-70">
          <mxGeometry x="50" width="70" height="21" as="geometry">
            <mxRectangle width="70" height="21" as="alternateBounds" />
          </mxGeometry>
        </mxCell>
        <mxCell id="PmIpgidc1ys_fQhGmDW8-73" value="" style="curved=1;dashed=1;startArrow=ERoneToMany;startSize=10;;endArrow=ERoneToMany;endSize=10;;exitX=1;exitY=0.5;entryX=0;entryY=0.5;rounded=0;exitDx=0;exitDy=0;entryDx=0;entryDy=0;" edge="1" parent="1" source="PmIpgidc1ys_fQhGmDW8-38" target="PmIpgidc1ys_fQhGmDW8-57">
          <mxGeometry relative="1" as="geometry">
            <Array as="points" />
          </mxGeometry>
        </mxCell>
        <mxCell id="PmIpgidc1ys_fQhGmDW8-74" value="" style="curved=1;startArrow=ERoneToMany;startSize=10;;endArrow=ERmany;endSize=10;;exitX=1;exitY=0.5;entryX=0;entryY=0.5;rounded=0;exitDx=0;exitDy=0;entryDx=0;entryDy=0;" edge="1" parent="1" source="PmIpgidc1ys_fQhGmDW8-60" target="PmIpgidc1ys_fQhGmDW8-67">
          <mxGeometry relative="1" as="geometry">
            <Array as="points" />
          </mxGeometry>
        </mxCell>
      </root>
    </mxGraphModel>
  </diagram>
</mxfile>
